<svg id="Layer_1" data-name="Layer 1" xmlns="http://www.w3.org/2000/svg" viewBox="0 0 237.88 266"><defs><style>.cls-1{fill:#00aad0;}.cls-2{fill:#71bf44;}.cls-3{fill:#f99d1b;}</style></defs><title>logo</title><path class="cls-1" d="M703.27,169h-1.11c-65.11,0-118.39,53.27-118.39,118.38V435H662V288a41,41,0,0,1,82,0V411H715V287a12,12,0,0,0-24,0V435h77V288a65.19,65.19,0,0,0-65-65h0a65.19,65.19,0,0,0-65,65V411H607.77V287.38A94.75,94.75,0,0,1,702.16,193h1.11a94.75,94.75,0,0,1,94.39,94.38V435h24V287.38C821.66,222.27,768.38,169,703.27,169Z" transform="translate(-583.77 -169)"/><path class="cls-2" d="M703,223h0v24h0a41.18,41.18,0,0,1,41,41V411H715V287a12,12,0,0,0-24,0V435h77V288A65.19,65.19,0,0,0,703,223Z" transform="translate(-583.77 -169)"/><path class="cls-3" d="M703.27,169H703v24h.27a94.75,94.75,0,0,1,94.39,94.38V435h24V287.38C821.66,222.27,768.38,169,703.27,169Z" transform="translate(-583.77 -169)"/></svg>